<?xml version="1.0" encoding="UTF-8"?>
<svg id="Layer_1" data-name="Layer 1" xmlns="http://www.w3.org/2000/svg" viewBox="0 0 488.41 65.99">
  <defs>
    <style>
      .cls-1 {
        fill: none;
        stroke: #231f20;
        stroke-miterlimit: 10;
      }
    </style>
  </defs>
  <path class="cls-1" d="M20.56,6.55c13.35,0,21.8,3.23,21.8,13.84,0,7.54-4.23,11.94-12.1,13.35v.17c9.12,1.33,14.92,6.22,14.92,14.26,0,13.18-10.69,16.41-25.2,16.41H.5v-4.81l6.3-.58V11.86l-6.3-.5v-4.81h20.06ZM17.83,32.09h1.66c8.62,0,11.77-3.9,11.77-10.61s-3.23-9.7-11.44-9.7h-1.99v20.31ZM17.83,59.36h2.74c9.12,0,12.85-3.32,12.85-11.36,0-7.46-3.9-10.78-12.27-10.78h-3.32v22.13Z"/>
  <path class="cls-1" d="M69.97,42.86v-5.72c0-6.8-1.58-10.78-7.54-10.78-2.4,0-5.55.5-5.55,3.15,0,.33.08.66.17,1.08h2.9c.17,1.08.41,2.16.41,3.15,0,3.07-1.99,5.06-5.47,5.06s-5.55-2.4-5.55-5.8c0-6.38,5.89-10.69,15.17-10.69,10.36,0,15.75,3.9,15.75,15.67v17.99c0,3.23.33,4.48,2.07,4.48.83,0,1.58-.08,2.65-.5l.99,3.48c-1.41.91-4.15,1.99-7.46,1.99-4.56,0-6.71-1.66-7.46-5.89-2.16,3.65-6.05,5.97-12.1,5.97s-11.52-2.82-11.52-10.78c0-9.04,6.55-11.85,16.91-11.85h5.64ZM69.97,52.98v-6.22h-3.81c-5.97,0-7.88,2.65-7.88,7.3,0,3.98,1.33,6.13,4.97,6.13,3.23,0,6.72-2.24,6.72-7.21Z"/>
  <path class="cls-1" d="M103.37,23.21l.75,7.13c2.16-4.15,6.22-8.04,13.93-8.04,8.12,0,12.35,4.06,12.35,13.76v23.38l5.14.58v4.56h-19.9v-4.56l4.39-.58v-22.55c0-4.97-.83-8.12-6.05-8.12-4.89,0-9.04,3.23-9.04,9.95v20.73l4.73.58v4.56h-20.06v-4.56l5.06-.58v-31.17l-5.06-.66v-4.39h13.76Z"/>
  <path class="cls-1" d="M155.18,2.9v56.54l4.56.58v4.56h-20.06v-4.56l5.22-.58V7.88l-5.22-.58V2.9h15.5ZM180.71,59.53l4.06.5v4.56h-19.9v-4.48l3.73-.41v-.41l-12.77-16.75v-1.16l14.09-13.02v-.5l-4.97-.33v-4.31h17.58v4.48l-5.64.58-11.69,11.03,15.5,20.23Z"/>
  <path class="cls-1" d="M215.61,5.64c16,0,25.37,10.86,25.37,29.35s-8.7,30.51-26.03,30.51-25.95-10.69-25.95-29.76,10.36-30.09,26.61-30.09ZM215.28,10.7c-11.94,0-14.26,10.36-14.26,24.95,0,13.43,2.32,24.7,14.09,24.7s13.68-10.45,13.68-25.04-2.24-24.62-13.51-24.62Z"/>
  <path class="cls-1" d="M260.29,14.59v8.62h10.86v5.14h-10.86v31.09l9.7.75v4.39h-25.78v-4.39l5.8-.75v-31.09h-5.8v-5.14h5.8v-2.82c0-12.02,5.39-19.9,17-19.9,7.29,0,11.03,3.98,11.03,8.7,0,4.15-2.32,6.38-5.64,6.38-2.98,0-4.64-1.58-5.06-3.73-.17-.75-.25-1.66-.17-2.65l2.82-.75c.17-.58.25-1.08.25-1.49,0-1.82-1.33-2.57-3.48-2.57-5.47,0-6.47,4.81-6.47,10.2Z"/>
  <path class="cls-1" d="M303.39,6.55c13.35,0,21.8,3.23,21.8,13.84,0,7.54-4.23,11.94-12.1,13.35v.17c9.12,1.33,14.92,6.22,14.92,14.26,0,13.18-10.69,16.41-25.2,16.41h-19.48v-4.81l6.3-.58V11.86l-6.3-.5v-4.81h20.06ZM300.66,32.09h1.66c8.62,0,11.77-3.9,11.77-10.61s-3.23-9.7-11.44-9.7h-1.99v20.31ZM300.66,59.36h2.74c9.12,0,12.85-3.32,12.85-11.36,0-7.46-3.9-10.78-12.27-10.78h-3.32v22.13Z"/>
  <path class="cls-1" d="M349.23,22.3c10.03,0,16.5,5.64,16.5,18.16,0,1.08-.08,2.82-.08,3.98h-24.79c.08,8.95,2.32,15.17,10.03,15.17,5.14,0,7.79-2.74,9.78-7.38l4.73,1.66c-2.32,7.21-7.88,11.61-16.33,11.61-12.77,0-19.07-8.37-19.07-20.97,0-14.18,8.12-22.22,19.23-22.22ZM355.29,39.63v-1.74c0-7.63-1.66-11.19-6.38-11.19-5.39,0-7.71,5.8-7.96,12.93h14.34Z"/>
  <path class="cls-1" d="M393.25,60.02v4.56h-24.46v-4.56l5.22-.58v-31.17l-5.22-.58v-4.48h14.26l.66,6.63c2.07-4.06,5.39-7.54,11.77-7.54,4.97,0,8.87,3.07,8.87,8.87,0,4.97-2.74,7.46-6.71,7.46-4.23,0-6.05-2.57-5.97-6.55l2.9-1c.08-.33.17-.75.17-1.08,0-1.41-1.08-1.91-2.49-1.91-4.39,0-7.96,5.64-7.96,11.27v20.06l8.95.58Z"/>
  <path class="cls-1" d="M419.61,23.21l.75,7.13c2.16-4.15,6.22-8.04,13.93-8.04,8.12,0,12.35,4.06,12.35,13.76v23.38l5.14.58v4.56h-19.9v-4.56l4.39-.58v-22.55c0-4.97-.83-8.12-6.05-8.12-4.89,0-9.04,3.23-9.04,9.95v20.73l4.73.58v4.56h-20.06v-4.56l5.06-.58v-31.17l-5.06-.66v-4.39h13.76Z"/>
  <path class="cls-1" d="M471.42,22.3c10.03,0,16.5,5.64,16.5,18.16,0,1.08-.08,2.82-.08,3.98h-24.79c.08,8.95,2.32,15.17,10.03,15.17,5.14,0,7.79-2.74,9.78-7.38l4.73,1.66c-2.32,7.21-7.88,11.61-16.33,11.61-12.77,0-19.07-8.37-19.07-20.97,0-14.18,8.12-22.22,19.23-22.22ZM477.47,39.63v-1.74c0-7.63-1.66-11.19-6.38-11.19-5.39,0-7.71,5.8-7.96,12.93h14.34Z"/>
</svg>